<svg width="194" height="63" viewBox="0 0 194 63" fill="none" xmlns="http://www.w3.org/2000/svg">
<path d="M104.378 44.3373L106.982 50.9178C103.293 53.9383 98.4105 55.988 93.311 55.988C83.6544 55.988 76.4933 49.0839 76.4933 40.1301C76.4933 31.1764 83.4374 24.1644 92.7684 24.1644C100.689 24.1644 107.199 29.3425 107.959 38.512L85.8244 45.6318C87.3434 47.8972 89.9474 49.2996 93.311 49.2996C96.783 49.0839 100.581 47.6815 104.378 44.3373ZM84.4139 39.0514L99.17 34.3048C97.868 32.1472 95.5895 30.8527 92.8769 30.8527C88.3199 30.8527 84.9564 34.3048 84.4139 39.0514Z" fill="#292F4F"/>
<path d="M151.034 39.9144C151.034 49.0839 143.872 55.988 134.216 55.988C124.668 55.988 117.615 49.4075 117.615 39.8065V8.30649L126.729 7.22772V27.7243C129.008 25.5668 132.154 24.2722 135.735 24.2722C144.198 24.1644 151.034 30.9606 151.034 39.9144ZM142.462 40.0222C142.462 35.3835 138.99 31.9315 134.433 31.9315C129.767 31.9315 126.295 35.4914 126.295 40.1301C126.295 44.7688 129.767 48.2209 134.324 48.2209C138.881 48.2209 142.462 44.6609 142.462 40.0222Z" fill="#292F4F"/>
<path d="M194 39.9144C194 49.0839 186.839 55.988 177.182 55.988C167.634 55.988 160.582 49.4075 160.582 39.8065V8.30649L169.696 7.22772V27.7243C171.974 25.5668 175.121 24.2722 178.701 24.2722C187.273 24.1644 194 30.9606 194 39.9144ZM185.428 40.0222C185.428 35.3835 181.956 31.9315 177.399 31.9315C172.734 31.9315 169.262 35.4914 169.262 40.1301C169.262 44.7688 172.734 48.2209 177.291 48.2209C181.956 48.2209 185.428 44.6609 185.428 40.0222Z" fill="#292F4F"/>
<path d="M31.6823 58.1456C46.7231 58.1456 58.9161 46.0227 58.9161 31.0685C58.9161 16.1143 46.7231 3.99146 31.6823 3.99146C16.6415 3.99146 4.44855 16.1143 4.44855 31.0685C4.44855 46.0227 16.6415 58.1456 31.6823 58.1456Z" fill="url(#paint0_linear)"/>
<path d="M31.6823 63C49.18 63 63.3646 48.897 63.3646 31.5C63.3646 14.103 49.18 0 31.6823 0C14.1847 0 0 14.103 0 31.5C0 48.897 14.1847 63 31.6823 63Z" fill="url(#paint1_linear)"/>
<path opacity="0.5" d="M58.8076 30.7448C48.066 40.5616 39.3859 37.0017 32.9843 32.2551C25.0638 26.4298 13.7796 22.1147 4.44855 33.226C5.64206 47.1421 17.3602 57.9298 31.5738 57.9298C46.6555 57.9298 58.8076 45.8476 58.8076 30.8527C58.8076 30.9606 58.8076 30.8527 58.8076 30.7448Z" fill="url(#paint2_linear)"/>
<path d="M33.0928 32.4709C39.4944 37.2175 48.1745 40.7774 58.9161 30.9606C58.8076 15.9658 46.6555 3.99146 31.6823 3.99146C16.6007 3.99146 4.44855 16.1815 4.44855 31.0685C4.44855 31.8236 4.44855 32.5788 4.55705 33.4418C13.8881 22.2226 25.1723 26.5377 33.0928 32.4709Z" fill="url(#paint3_linear)"/>
<path opacity="0.4" d="M4.44855 30.8527C15.1902 40.6695 23.8702 37.1096 30.2718 32.363C38.1924 26.5377 49.4765 22.2226 58.8076 33.3339C57.6141 47.25 45.896 58.0377 31.6823 58.0377C16.6007 58.0377 4.44855 45.9555 4.44855 30.9606C4.44855 30.9606 4.44855 30.9606 4.44855 30.8527Z" fill="url(#paint4_linear)"/>
<defs>
<linearGradient id="paint0_linear" x1="4.39864" y1="31.0474" x2="58.9331" y2="31.0474" gradientUnits="userSpaceOnUse">
<stop stop-color="#0093BD"/>
<stop offset="0.8401" stop-color="#73B8CD"/>
</linearGradient>
<linearGradient id="paint1_linear" x1="4.23784" y1="47.2281" x2="58.9352" y2="15.4658" gradientUnits="userSpaceOnUse">
<stop stop-color="#8D94CA"/>
<stop offset="0.9995" stop-color="#456BB2"/>
</linearGradient>
<linearGradient id="paint2_linear" x1="31.6659" y1="58.0834" x2="31.6659" y2="26.4019" gradientUnits="userSpaceOnUse">
<stop stop-color="#8D94CA"/>
<stop offset="0.8401" stop-color="#E6C6E0"/>
</linearGradient>
<linearGradient id="paint3_linear" x1="31.6659" y1="37.1321" x2="31.6659" y2="4.01077" gradientUnits="userSpaceOnUse">
<stop stop-color="#8D94CA"/>
<stop offset="1" stop-color="#456BB2"/>
</linearGradient>
<linearGradient id="paint4_linear" x1="31.6659" y1="58.1577" x2="31.6659" y2="26.4764" gradientUnits="userSpaceOnUse">
<stop offset="0.0946026" stop-color="#8D94CA"/>
<stop offset="0.8392" stop-color="#F4E5F1"/>
</linearGradient>
</defs>
</svg>
