<svg width="194" height="61" viewBox="0 0 194 61" fill="none" xmlns="http://www.w3.org/2000/svg">
<path d="M104.406 42.8967L107.006 49.301C103.353 52.2496 98.4153 54.1836 93.2806 54.1836C83.6366 54.1836 76.494 47.4621 76.494 38.775C76.494 30.0879 83.472 23.3031 92.8198 23.3031C100.752 23.3031 107.204 28.3125 107.994 37.1581L85.9077 44.0697C87.4218 46.2574 90.0221 47.589 93.3794 47.589C96.8025 47.589 100.555 46.2574 104.406 42.8967ZM84.4265 37.8239L99.1395 33.195C97.8887 31.0708 95.6176 29.866 92.8856 29.866C88.3105 29.8977 84.8873 33.2267 84.4265 37.8239Z" fill="url(#paint0_linear)"/>
<path d="M151.013 38.6799C151.013 47.5889 143.871 54.2152 134.161 54.2152C124.583 54.2152 117.506 47.8108 117.506 38.4896V8.02132L126.623 6.94336V26.7588C128.96 24.6346 132.021 23.4298 135.675 23.4298C144.233 23.3981 151.013 30.0244 151.013 38.6799ZM142.422 38.7433C142.422 34.2412 138.966 30.8488 134.358 30.8488C129.684 30.8488 126.162 34.2412 126.162 38.8067C126.162 43.3087 129.619 46.7012 134.227 46.7012C138.9 46.7012 142.422 43.277 142.422 38.7433Z" fill="url(#paint1_linear)"/>
<path d="M194 38.6799C194 47.5889 186.857 54.2152 177.147 54.2152C167.569 54.2152 160.492 47.8108 160.492 38.4896V8.02132L169.61 6.94336V26.7588C171.947 24.6346 175.008 23.4298 178.662 23.4298C187.219 23.3981 194 30.0244 194 38.6799ZM185.409 38.7433C185.409 34.2412 181.953 30.8488 177.345 30.8488C172.671 30.8488 169.149 34.2412 169.149 38.8067C169.149 43.3087 172.605 46.7012 177.213 46.7012C181.887 46.7012 185.409 43.277 185.409 38.7433Z" fill="url(#paint2_linear)"/>
<path d="M31.6641 56.3394C46.7157 56.3394 58.9175 44.5861 58.9175 30.0878C58.9175 15.5895 46.7157 3.83624 31.6641 3.83624C16.6124 3.83624 4.41058 15.5895 4.41058 30.0878C4.41058 44.5861 16.6124 56.3394 31.6641 56.3394Z" fill="url(#paint3_linear)"/>
<path d="M31.6641 61C49.1516 61 63.3281 47.3447 63.3281 30.5C63.3281 13.6553 49.1516 0 31.6641 0C14.1765 0 0 13.6553 0 30.5C0 47.3447 14.1765 61 31.6641 61Z" fill="url(#paint4_linear)"/>
<path opacity="0.5" d="M58.8192 29.8342C48.1219 39.3456 39.4324 35.9532 33.0469 31.356C25.1803 25.6808 13.8247 21.4641 4.47687 32.2754C5.6618 45.7183 17.3466 56.2443 31.5987 56.2443C46.6408 56.2443 58.8192 44.5135 58.8192 30.0244C58.8522 29.961 58.8192 29.8976 58.8192 29.8342Z" fill="url(#paint5_linear)"/>
<path d="M33.1123 31.4196C39.5306 36.0168 48.1872 39.4092 58.8846 29.8978C58.7529 15.5038 46.6402 3.86816 31.664 3.86816C16.6219 3.86816 4.44344 15.5989 4.44344 30.088C4.44344 30.8489 4.47635 31.6098 4.54218 32.3391C13.89 21.5594 25.2127 25.7445 33.1123 31.4196Z" fill="url(#paint6_linear)"/>
<path opacity="0.4" d="M4.50932 29.8977C15.2066 39.4092 23.8962 36.0167 30.2816 31.4196C38.1483 25.7444 49.5039 21.5594 58.8517 32.3707C57.6668 45.8135 45.982 56.3395 31.7299 56.3395C16.6878 56.3395 4.50932 44.6087 4.50932 30.1197C4.4764 30.0562 4.50932 29.9611 4.50932 29.8977Z" fill="url(#paint7_linear)"/>
<defs>
<linearGradient id="paint0_linear" x1="92.257" y1="54.195" x2="92.257" y2="23.3437" gradientUnits="userSpaceOnUse">
<stop stop-color="#C6C9E4"/>
<stop offset="0.5127" stop-color="white"/>
</linearGradient>
<linearGradient id="paint1_linear" x1="134.264" y1="54.1949" x2="134.264" y2="6.9237" gradientUnits="userSpaceOnUse">
<stop stop-color="#C6C9E4"/>
<stop offset="0.5127" stop-color="white"/>
</linearGradient>
<linearGradient id="paint2_linear" x1="177.269" y1="54.1949" x2="177.269" y2="6.9237" gradientUnits="userSpaceOnUse">
<stop stop-color="#C6C9E4"/>
<stop offset="0.5127" stop-color="white"/>
</linearGradient>
<linearGradient id="paint3_linear" x1="4.39841" y1="30.0764" x2="58.9284" y2="30.0764" gradientUnits="userSpaceOnUse">
<stop stop-color="#0093BD"/>
<stop offset="0.8401" stop-color="#73B8CD"/>
</linearGradient>
<linearGradient id="paint4_linear" x1="4.23746" y1="45.7513" x2="58.0427" y2="13.5014" gradientUnits="userSpaceOnUse">
<stop stop-color="#8D94CA"/>
<stop offset="0.9995" stop-color="white"/>
</linearGradient>
<linearGradient id="paint5_linear" x1="31.6639" y1="56.2671" x2="31.6639" y2="25.5765" gradientUnits="userSpaceOnUse">
<stop stop-color="#8D94CA"/>
<stop offset="0.8401" stop-color="#E6C6E0"/>
</linearGradient>
<linearGradient id="paint6_linear" x1="31.6633" y1="35.9712" x2="31.6633" y2="3.8856" gradientUnits="userSpaceOnUse">
<stop stop-color="#8D94CA"/>
<stop offset="1" stop-color="#456BB2"/>
</linearGradient>
<linearGradient id="paint7_linear" x1="31.6631" y1="56.3392" x2="31.6631" y2="25.6486" gradientUnits="userSpaceOnUse">
<stop offset="0.0946" stop-color="#8D94CA"/>
<stop offset="0.8392" stop-color="#F4E5F1"/>
</linearGradient>
</defs>
</svg>
